<?xml version="1.0" encoding="utf-8"?>
<!-- Generator: Adobe Illustrator 21.0.0, SVG Export Plug-In . SVG Version: 6.00 Build 0)  -->
<svg version="1.1" id="Layer_1" xmlns="http://www.w3.org/2000/svg" xmlns:xlink="http://www.w3.org/1999/xlink" x="0px" y="0px"
	 viewBox="0 0 907.1 907.1" style="enable-background:new 0 0 907.1 907.1;" xml:space="preserve">
<style type="text/css">
	.st0{fill:none;stroke:#9BB6DF;stroke-width:9.6025;stroke-linecap:round;stroke-miterlimit:10;}
	.st1{fill:none;stroke:#9BB6DF;stroke-width:10.9354;stroke-linecap:round;stroke-miterlimit:10;}
	.st2{fill:none;stroke:#9BB6DF;stroke-width:9.8939;stroke-linecap:round;stroke-miterlimit:10;}
	.st3{fill:none;stroke:#9BB6DF;stroke-width:9.3732;stroke-linecap:round;stroke-miterlimit:10;}
	.st4{fill:none;stroke:#9BB6DF;stroke-width:10.4146;stroke-linecap:round;stroke-miterlimit:10;}
	.st5{fill:none;stroke:#231F20;stroke-width:13;stroke-linecap:round;stroke-miterlimit:10;}
	.st6{fill:#FFE4A0;}
	.st7{fill:#FFCD34;}
	.st8{fill:none;stroke:#231F20;stroke-width:12.5425;stroke-miterlimit:10;}
	.st9{fill:#231F20;stroke:#231F20;stroke-width:0.7385;stroke-miterlimit:10;}
	.st10{fill:#9BB6DF;stroke:#000000;stroke-width:13.9907;stroke-miterlimit:10;}
	.st11{fill:none;stroke:#000000;stroke-width:13.9907;stroke-miterlimit:10;}
	.st12{fill:#BE4627;}
	.st13{fill:#0A0605;stroke:#0A0605;stroke-width:1.8065;stroke-linecap:round;stroke-linejoin:round;stroke-miterlimit:10;}
	.st14{fill:none;stroke:#000000;stroke-width:14.1913;stroke-linecap:round;stroke-linejoin:round;stroke-miterlimit:10;}
	.st15{fill:none;stroke:#0A0605;stroke-width:14.1913;stroke-linecap:round;stroke-linejoin:round;stroke-miterlimit:10;}
	.st16{fill:#9BB6DF;stroke:#9BB6DF;stroke-width:2;stroke-linecap:round;stroke-linejoin:round;stroke-miterlimit:10;}
	.st17{fill:#9BB6DF;stroke:#9BB6DF;stroke-width:4;stroke-linecap:round;stroke-linejoin:round;stroke-miterlimit:10;}
	.st18{fill:none;stroke:#000000;stroke-width:13.9595;stroke-miterlimit:10;}
	.st19{fill:#9BB6DF;stroke:#FFFFFF;stroke-width:1.5917;stroke-miterlimit:10;}
	.st20{fill:none;stroke:#000000;stroke-width:13;stroke-miterlimit:10;}
	.st21{fill:none;stroke:#000000;stroke-width:13;stroke-linecap:round;stroke-linejoin:round;stroke-miterlimit:10;}
	.st22{fill:none;stroke:#231F20;stroke-width:4;stroke-miterlimit:10;}
	.st23{fill:none;stroke:#000000;stroke-width:5;stroke-linecap:round;stroke-miterlimit:10;}
	.st24{fill:none;stroke:#000000;stroke-width:14.1835;stroke-linecap:round;stroke-miterlimit:10;}
	.st25{fill:none;stroke:#231F20;stroke-width:4.3641;stroke-miterlimit:10;}
	.st26{fill:none;stroke:#000000;stroke-width:5.4552;stroke-linecap:round;stroke-miterlimit:10;}
	.st27{fill:#FFFFFF;stroke:#000000;stroke-width:13;stroke-linecap:round;stroke-linejoin:round;stroke-miterlimit:10;}
	.st28{fill:none;stroke:#BE4627;stroke-width:17.5211;stroke-linejoin:round;stroke-miterlimit:10;}
	.st29{fill:none;stroke:#9BB6DF;stroke-width:15;stroke-miterlimit:10;}
	.st30{fill:#9BB6DF;}
	.st31{fill:none;stroke:#000000;stroke-width:15.2025;stroke-miterlimit:10;}
	.st32{fill:none;stroke:#000000;stroke-width:14.4884;stroke-miterlimit:10;}
	.st33{fill:none;stroke:#000000;stroke-width:17.5311;stroke-miterlimit:10;}
	.st34{fill:#9BB6DF;stroke:#9BB6DF;stroke-width:12;stroke-linecap:round;stroke-linejoin:round;stroke-miterlimit:10;}
	.st35{fill:#FFCF45;stroke:#FFCF45;stroke-width:12;stroke-miterlimit:10;}
	.st36{fill:#FFCF45;stroke:#000000;stroke-width:5.0299;stroke-miterlimit:10;}
	.st37{fill:none;stroke:#FFE4A0;stroke-width:3.8633;stroke-miterlimit:10;}
	.st38{fill:#FFFFFF;stroke:#000000;stroke-width:3.7724;stroke-linejoin:round;stroke-miterlimit:10;}
	.st39{fill:#FFCF45;stroke:#000000;stroke-width:16.45;stroke-miterlimit:10;}
	.st40{fill:none;stroke:#FFE4A0;stroke-width:10.9842;stroke-miterlimit:10;}
	.st41{fill:#FFFFFF;stroke:#000000;stroke-width:13.7083;stroke-linejoin:round;stroke-miterlimit:10;}
	.st42{fill:#FFCF45;stroke:#000000;stroke-width:34.438;stroke-linecap:round;stroke-linejoin:round;stroke-miterlimit:10;}
	.st43{fill:none;stroke:#FFE4A0;stroke-width:22.9953;stroke-miterlimit:10;}
	.st44{fill:none;stroke:#000000;stroke-width:28.6983;stroke-linejoin:round;stroke-miterlimit:10;}
	.st45{fill:#BE4627;stroke:#BE4627;stroke-width:4.3973;stroke-miterlimit:10;}
	.st46{fill:none;stroke:#BE4627;stroke-width:1.0993;stroke-miterlimit:10;}
	.st47{fill:none;stroke:#FFFFFF;stroke-width:1.0993;stroke-miterlimit:10;}
	.st48{fill:none;stroke:#000000;stroke-width:14.2912;stroke-linecap:round;stroke-linejoin:round;stroke-miterlimit:10;}
	.st49{fill:none;stroke:#000000;stroke-width:18.5705;stroke-linejoin:round;stroke-miterlimit:10;}
	.st50{fill:#9BB6DF;stroke:#9BB6DF;stroke-width:9.188;stroke-linecap:round;stroke-linejoin:round;stroke-miterlimit:10;}
	.st51{fill:#FFCF45;stroke:#000000;stroke-width:13.8234;stroke-miterlimit:10;}
	.st52{fill:none;stroke:#000000;stroke-width:13.8234;stroke-linejoin:round;stroke-miterlimit:10;}
</style>
<path class="st42" d="M729.1,278.5c32.9,117.4-22.9,248.2-113.3,313.7c-41.7,30.2-24.2,90.3-29.6,116.6H320.9
	c-5.4-26.3,12.1-86.4-29.6-116.6C200.9,526.7,145.2,395.9,178,278.5C205.3,181.2,278.9,67.2,454,63.3h-0.8l0.4,101.1l83.6-16.1
	l19.5,83.6l100-15l14,76.8L729.1,278.5 M729.1,278.5"/>
<path class="st43" d="M400.9,689.1l1.6-201.2c3.5-60.2-2.7-110.2-41.9-119.1c-24.1-5.5-43.3,14.5-38.6,42.7
	c6.5,38.9,56.8,72.1,133.9,71.4h-4.7c77.1,0.7,127.3-32.6,133.9-71.4c4.7-28.2-14.5-48.2-38.6-42.7c-39.2,8.8-45.3,58.9-41.9,119.1
	l1.6,201.2"/>
<path class="st44" d="M575.9,708.8H331.2c-17.6,0-32,14.4-32,32c0,17.6,14.4,32,32,32h8.6c-1.6,2.7-2.5,5.9-2.5,9.3
	c0,10.4,8.5,18.9,18.9,18.9h21.5v3.3c0,21.7,17.7,39.4,39.4,39.4h66.5c21.7,0,39.4-17.7,39.4-39.4v-3.3h27.9
	c10.4,0,18.9-8.5,18.9-18.9c0-3.4-0.9-6.5-2.5-9.3h8.6c17.6,0,32-14.4,32-32C607.9,723.2,593.5,708.8,575.9,708.8z"/>
</svg>
