<?xml version="1.0" encoding="utf-8"?>
<!-- Generator: Adobe Illustrator 21.0.0, SVG Export Plug-In . SVG Version: 6.00 Build 0)  -->
<svg version="1.1" id="Layer_1" xmlns="http://www.w3.org/2000/svg" xmlns:xlink="http://www.w3.org/1999/xlink" x="0px" y="0px"
	 viewBox="0 0 453.5 453.5" style="enable-background:new 0 0 453.5 453.5;" xml:space="preserve">
<style type="text/css">
	.st0{fill:none;stroke:#9BB6DF;stroke-width:9.6025;stroke-linecap:round;stroke-miterlimit:10;}
	.st1{fill:none;stroke:#9BB6DF;stroke-width:10.9354;stroke-linecap:round;stroke-miterlimit:10;}
	.st2{fill:none;stroke:#9BB6DF;stroke-width:9.8939;stroke-linecap:round;stroke-miterlimit:10;}
	.st3{fill:none;stroke:#9BB6DF;stroke-width:9.3732;stroke-linecap:round;stroke-miterlimit:10;}
	.st4{fill:none;stroke:#9BB6DF;stroke-width:10.4146;stroke-linecap:round;stroke-miterlimit:10;}
	.st5{fill:none;stroke:#231F20;stroke-width:13;stroke-linecap:round;stroke-miterlimit:10;}
	.st6{fill:#FFE4A0;}
	.st7{fill:#FFCD34;}
	.st8{fill:none;stroke:#231F20;stroke-width:12.5425;stroke-miterlimit:10;}
	.st9{fill:#231F20;stroke:#231F20;stroke-width:0.7385;stroke-miterlimit:10;}
	.st10{fill:#9BB6DF;stroke:#000000;stroke-width:13.9907;stroke-miterlimit:10;}
	.st11{fill:none;stroke:#000000;stroke-width:13.9907;stroke-miterlimit:10;}
	.st12{fill:#BE4627;}
	.st13{fill:#0A0605;stroke:#0A0605;stroke-width:1.8065;stroke-linecap:round;stroke-linejoin:round;stroke-miterlimit:10;}
	.st14{fill:none;stroke:#000000;stroke-width:14.1913;stroke-linecap:round;stroke-linejoin:round;stroke-miterlimit:10;}
	.st15{fill:none;stroke:#0A0605;stroke-width:14.1913;stroke-linecap:round;stroke-linejoin:round;stroke-miterlimit:10;}
	.st16{fill:#9BB6DF;stroke:#9BB6DF;stroke-width:2;stroke-linecap:round;stroke-linejoin:round;stroke-miterlimit:10;}
	.st17{fill:#9BB6DF;stroke:#9BB6DF;stroke-width:4;stroke-linecap:round;stroke-linejoin:round;stroke-miterlimit:10;}
	.st18{fill:none;stroke:#000000;stroke-width:13.9595;stroke-miterlimit:10;}
	.st19{fill:#9BB6DF;stroke:#FFFFFF;stroke-width:1.5917;stroke-miterlimit:10;}
	.st20{fill:none;stroke:#000000;stroke-width:13;stroke-miterlimit:10;}
	.st21{fill:none;stroke:#000000;stroke-width:13;stroke-linecap:round;stroke-linejoin:round;stroke-miterlimit:10;}
	.st22{fill:none;stroke:#231F20;stroke-width:4;stroke-miterlimit:10;}
	.st23{fill:none;stroke:#000000;stroke-width:5;stroke-linecap:round;stroke-miterlimit:10;}
	.st24{fill:none;stroke:#000000;stroke-width:14.1835;stroke-linecap:round;stroke-miterlimit:10;}
	.st25{fill:none;stroke:#231F20;stroke-width:4.3641;stroke-miterlimit:10;}
	.st26{fill:none;stroke:#000000;stroke-width:5.4552;stroke-linecap:round;stroke-miterlimit:10;}
	.st27{fill:#FFFFFF;stroke:#000000;stroke-width:13;stroke-linecap:round;stroke-linejoin:round;stroke-miterlimit:10;}
	.st28{fill:none;stroke:#BE4627;stroke-width:17.5211;stroke-linejoin:round;stroke-miterlimit:10;}
	.st29{fill:none;stroke:#9BB6DF;stroke-width:15;stroke-miterlimit:10;}
	.st30{fill:#9BB6DF;}
	.st31{fill:none;stroke:#000000;stroke-width:15.2025;stroke-miterlimit:10;}
	.st32{fill:none;stroke:#000000;stroke-width:14.4884;stroke-miterlimit:10;}
	.st33{fill:none;stroke:#000000;stroke-width:17.5311;stroke-miterlimit:10;}
	.st34{fill:#9BB6DF;stroke:#9BB6DF;stroke-width:12;stroke-linecap:round;stroke-linejoin:round;stroke-miterlimit:10;}
	.st35{fill:#FFCF45;stroke:#FFCF45;stroke-width:12;stroke-miterlimit:10;}
	.st36{fill:#FFCF45;stroke:#000000;stroke-width:5.0299;stroke-miterlimit:10;}
	.st37{fill:none;stroke:#FFE4A0;stroke-width:3.8633;stroke-miterlimit:10;}
	.st38{fill:#FFFFFF;stroke:#000000;stroke-width:3.7724;stroke-linejoin:round;stroke-miterlimit:10;}
	.st39{fill:#FFCF45;stroke:#000000;stroke-width:16.45;stroke-miterlimit:10;}
	.st40{fill:none;stroke:#FFE4A0;stroke-width:10.9842;stroke-miterlimit:10;}
	.st41{fill:#FFFFFF;stroke:#000000;stroke-width:13.7083;stroke-linejoin:round;stroke-miterlimit:10;}
	.st42{fill:none;stroke:#000000;stroke-width:16.45;stroke-miterlimit:10;}
	.st43{fill:#FFCF45;stroke:#000000;stroke-width:34.438;stroke-linecap:round;stroke-linejoin:round;stroke-miterlimit:10;}
	.st44{fill:none;stroke:#FFE4A0;stroke-width:22.9953;stroke-miterlimit:10;}
	.st45{fill:none;stroke:#000000;stroke-width:28.6983;stroke-linejoin:round;stroke-miterlimit:10;}
	.st46{fill:#BE4627;stroke:#BE4627;stroke-width:4.3973;stroke-miterlimit:10;}
	.st47{fill:none;stroke:#BE4627;stroke-width:1.0993;stroke-miterlimit:10;}
	.st48{fill:none;stroke:#FFFFFF;stroke-width:1.0993;stroke-miterlimit:10;}
	.st49{fill:none;stroke:#000000;stroke-width:14.2912;stroke-linecap:round;stroke-linejoin:round;stroke-miterlimit:10;}
	.st50{fill:none;stroke:#000000;stroke-width:18.5705;stroke-linejoin:round;stroke-miterlimit:10;}
	.st51{fill:#9BB6DF;stroke:#9BB6DF;stroke-width:9.188;stroke-linecap:round;stroke-linejoin:round;stroke-miterlimit:10;}
	.st52{fill:#FFCF45;stroke:#000000;stroke-width:13.8234;stroke-miterlimit:10;}
	.st53{fill:none;stroke:#000000;stroke-width:13.8234;stroke-linejoin:round;stroke-miterlimit:10;}
	.st54{fill:none;stroke:#000000;stroke-width:16.4608;stroke-linecap:round;stroke-linejoin:round;stroke-miterlimit:10;}
	.st55{fill:none;stroke:#FFE4A0;stroke-width:10.9913;stroke-miterlimit:10;}
	.st56{fill:none;stroke:#000000;stroke-width:13.7173;stroke-linejoin:round;stroke-miterlimit:10;}
	.st57{fill:#FFD045;stroke:#000000;stroke-width:16.4608;stroke-linecap:round;stroke-linejoin:round;stroke-miterlimit:10;}
</style>
<path class="st57" d="M359.9,310.4l-27.9-7.3l-6.7,36.7l-47.8-7.2l-9.3,39.9l-40-7.7l-0.2,48.3h0.4
	c-83.7-1.9-118.9-56.3-131.9-102.8c-15.7-56.1,11-118.6,54.2-150c19.9-14.4,11.6-43.2,14.1-55.7h126.8c2.6,12.6-5.8,41.3,14.1,55.7
	C348.9,191.8,375.6,254.3,359.9,310.4 M359.9,310.4"/>
<path class="st55" d="M253.3,114.2l-0.8,96.2c-1.7,28.8,1.3,52.7,20,56.9c11.5,2.6,20.7-6.9,18.4-20.4c-3.1-18.6-27.1-34.5-64-34.2
	h2.3c-36.8-0.3-60.9,15.6-64,34.2c-2.3,13.5,6.9,23,18.4,20.4c18.7-4.2,21.7-28.2,20-56.9l-0.8-96.2"/>
<path class="st56" d="M286.7,104.7h-117c-8.4,0-15.3-6.9-15.3-15.3c0-8.4,6.9-15.3,15.3-15.3h4.1c-0.7-1.3-1.2-2.8-1.2-4.4
	c0-5,4.1-9,9-9h10.3v-1.6c0-10.4,8.5-18.8,18.8-18.8h31.8c10.4,0,18.8,8.5,18.8,18.8v1.6h13.3c5,0,9,4.1,9,9c0,1.6-0.4,3.1-1.2,4.4
	h4.1c8.4,0,15.3,6.9,15.3,15.3C302,97.9,295.1,104.7,286.7,104.7z"/>
</svg>
