<?xml version="1.0" encoding="utf-8"?>
<!-- Generator: Adobe Illustrator 21.0.0, SVG Export Plug-In . SVG Version: 6.00 Build 0)  -->
<svg version="1.1" id="Layer_1" xmlns="http://www.w3.org/2000/svg" xmlns:xlink="http://www.w3.org/1999/xlink" x="0px" y="0px"
	 viewBox="0 0 510.2 510.2" style="enable-background:new 0 0 510.2 510.2;" xml:space="preserve">
<style type="text/css">
	.st0{fill:#BE4627;}
	.st1{fill:none;stroke:#9BB6DF;stroke-width:9.6025;stroke-linecap:round;stroke-miterlimit:10;}
	.st2{fill:none;stroke:#9BB6DF;stroke-width:10.9354;stroke-linecap:round;stroke-miterlimit:10;}
	.st3{fill:none;stroke:#9BB6DF;stroke-width:9.8939;stroke-linecap:round;stroke-miterlimit:10;}
	.st4{fill:none;stroke:#9BB6DF;stroke-width:9.3732;stroke-linecap:round;stroke-miterlimit:10;}
	.st5{fill:none;stroke:#9BB6DF;stroke-width:10.4146;stroke-linecap:round;stroke-miterlimit:10;}
	.st6{fill:none;stroke:#231F20;stroke-width:13;stroke-linecap:round;stroke-miterlimit:10;}
	.st7{fill:#FFE4A0;}
	.st8{fill:#FFCD34;}
	.st9{fill:none;stroke:#231F20;stroke-width:12.5425;stroke-miterlimit:10;}
	.st10{fill:#231F20;stroke:#231F20;stroke-width:0.7385;stroke-miterlimit:10;}
	.st11{fill:#9BB6DF;stroke:#000000;stroke-width:13.9907;stroke-miterlimit:10;}
	.st12{fill:none;stroke:#000000;stroke-width:13.9907;stroke-miterlimit:10;}
	.st13{fill:#0A0605;stroke:#0A0605;stroke-width:1.8065;stroke-linecap:round;stroke-linejoin:round;stroke-miterlimit:10;}
	.st14{fill:#FFFFFF;stroke:#000000;stroke-width:14.1913;stroke-linecap:round;stroke-linejoin:round;stroke-miterlimit:10;}
	.st15{fill:none;stroke:#0A0605;stroke-width:14.1913;stroke-linecap:round;stroke-linejoin:round;stroke-miterlimit:10;}
	.st16{fill:#9BB6DF;stroke:#9BB6DF;stroke-width:2;stroke-linecap:round;stroke-linejoin:round;stroke-miterlimit:10;}
	.st17{fill:#9BB6DF;stroke:#9BB6DF;stroke-width:4;stroke-linecap:round;stroke-linejoin:round;stroke-miterlimit:10;}
	.st18{fill:none;stroke:#000000;stroke-width:13.9595;stroke-miterlimit:10;}
	.st19{fill:#9BB6DF;stroke:#FFFFFF;stroke-width:1.5917;stroke-miterlimit:10;}
	.st20{fill:none;stroke:#000000;stroke-width:13;stroke-miterlimit:10;}
	.st21{fill:#FFFFFF;stroke:#050506;stroke-width:11.1082;stroke-linecap:round;stroke-linejoin:round;stroke-miterlimit:10;}
	.st22{fill:none;stroke:#231F20;stroke-width:4;stroke-miterlimit:10;}
	.st23{fill:none;stroke:#000000;stroke-width:5;stroke-linecap:round;stroke-miterlimit:10;}
	.st24{fill:none;stroke:#000000;stroke-width:14.1835;stroke-linecap:round;stroke-miterlimit:10;}
	.st25{fill:none;stroke:#231F20;stroke-width:4.3641;stroke-miterlimit:10;}
	.st26{fill:none;stroke:#000000;stroke-width:5.4552;stroke-linecap:round;stroke-miterlimit:10;}
	.st27{fill:#FFFFFF;stroke:#000000;stroke-width:13;stroke-linecap:round;stroke-linejoin:round;stroke-miterlimit:10;}
	.st28{fill:#FFFFFF;stroke:#000000;stroke-width:13;stroke-miterlimit:10;}
	.st29{fill:none;stroke:#BE4627;stroke-width:17.5211;stroke-linejoin:round;stroke-miterlimit:10;}
	.st30{fill:none;stroke:#9BB6DF;stroke-width:15;stroke-miterlimit:10;}
	.st31{fill:#FFFFFF;stroke:#000000;stroke-width:14.2912;stroke-linecap:round;stroke-linejoin:round;stroke-miterlimit:10;}
	.st32{fill:none;stroke:#BE4627;stroke-width:4.3973;stroke-miterlimit:10;}
	.st33{fill:none;stroke:#BE4627;stroke-width:1.0993;stroke-miterlimit:10;}
	.st34{fill:none;stroke:#FFFFFF;stroke-width:1.0993;stroke-miterlimit:10;}
	.st35{fill:none;stroke:#000000;stroke-width:14.2912;stroke-linecap:round;stroke-linejoin:round;stroke-miterlimit:10;}
	.st36{fill:#9BB6DF;}
	.st37{fill:#FFFFFF;stroke:#000000;stroke-width:15.2025;stroke-miterlimit:10;}
</style>
<line class="st1" x1="222" y1="191.3" x2="326.4" y2="248.8"/>
<line class="st2" x1="94.9" y1="361.5" x2="215.7" y2="428.4"/>
<line class="st3" x1="120.8" y1="342" x2="224.7" y2="399.6"/>
<line class="st4" x1="156" y1="327.3" x2="223.8" y2="364.9"/>
<line class="st4" x1="296.5" y1="71.6" x2="413.8" y2="136.7"/>
<line class="st4" x1="289.3" y1="96.6" x2="393.1" y2="154.2"/>
<line class="st4" x1="291.1" y1="130.3" x2="359" y2="167.9"/>
<line class="st4" x1="258.4" y1="176.4" x2="326.2" y2="214.1"/>
<line class="st5" x1="196.7" y1="215" x2="313.3" y2="279.6"/>
<line class="st3" x1="184.7" y1="244.2" x2="288.5" y2="301.8"/>
<line class="st4" x1="186.9" y1="276.4" x2="254.8" y2="314"/>
<path class="st6" d="M303.2,63.7c-5,10.3-10.8,25.9-11.1,44.9c-0.3,25.6,5.1,42.3,17.3,61.2c12.5,19.2,32.8,72.6,4.4,110.6
	c-23.8,31.8-77.9,40.1-108,41.1c-28.2,0.9-33.6-2.8-64.3,8.2c-27.7,9.9-45,28.6-55.3,42.3"/>
<path class="st6" d="M422.2,129.7c-8.2,8.6-21.3,20-40.6,28.5c-25.9,11.4-45.5,14.3-70.4,12.6c-25.4-1.8-89.2,5-114.7,44.5
	c-21.3,33.2-4.7,80.7,8.3,105.6c12.2,23.3,18.4,26.1,21.5,55.8c2.8,26.8-8.2,49-17.4,63.3"/>
</svg>
