<?xml version="1.0" encoding="utf-8"?>
<!-- Generator: Adobe Illustrator 21.0.0, SVG Export Plug-In . SVG Version: 6.00 Build 0)  -->
<svg version="1.1" id="Layer_1" xmlns="http://www.w3.org/2000/svg" xmlns:xlink="http://www.w3.org/1999/xlink" x="0px" y="0px"
	 viewBox="0 0 453.5 453.5" style="enable-background:new 0 0 453.5 453.5;" xml:space="preserve">
<style type="text/css">
	.st0{fill:none;stroke:#9BB6DF;stroke-width:9.6025;stroke-linecap:round;stroke-miterlimit:10;}
	.st1{fill:none;stroke:#9BB6DF;stroke-width:10.9354;stroke-linecap:round;stroke-miterlimit:10;}
	.st2{fill:none;stroke:#9BB6DF;stroke-width:9.8939;stroke-linecap:round;stroke-miterlimit:10;}
	.st3{fill:none;stroke:#9BB6DF;stroke-width:9.3732;stroke-linecap:round;stroke-miterlimit:10;}
	.st4{fill:none;stroke:#9BB6DF;stroke-width:10.4146;stroke-linecap:round;stroke-miterlimit:10;}
	.st5{fill:none;stroke:#231F20;stroke-width:13;stroke-linecap:round;stroke-miterlimit:10;}
	.st6{fill:#FFE4A0;}
	.st7{fill:#FFCD34;}
	.st8{fill:none;stroke:#231F20;stroke-width:12.5425;stroke-miterlimit:10;}
	.st9{fill:#231F20;stroke:#231F20;stroke-width:0.7385;stroke-miterlimit:10;}
	.st10{fill:#9BB6DF;stroke:#000000;stroke-width:13.9907;stroke-miterlimit:10;}
	.st11{fill:none;stroke:#000000;stroke-width:13.9907;stroke-miterlimit:10;}
	.st12{fill:#BE4627;}
	.st13{fill:#0A0605;stroke:#0A0605;stroke-width:1.8065;stroke-linecap:round;stroke-linejoin:round;stroke-miterlimit:10;}
	.st14{fill:none;stroke:#000000;stroke-width:14.1913;stroke-linecap:round;stroke-linejoin:round;stroke-miterlimit:10;}
	.st15{fill:none;stroke:#0A0605;stroke-width:14.1913;stroke-linecap:round;stroke-linejoin:round;stroke-miterlimit:10;}
	.st16{fill:#9BB6DF;stroke:#9BB6DF;stroke-width:2;stroke-linecap:round;stroke-linejoin:round;stroke-miterlimit:10;}
	.st17{fill:#9BB6DF;stroke:#9BB6DF;stroke-width:4;stroke-linecap:round;stroke-linejoin:round;stroke-miterlimit:10;}
	.st18{fill:none;stroke:#000000;stroke-width:13.9595;stroke-miterlimit:10;}
	.st19{fill:#9BB6DF;stroke:#FFFFFF;stroke-width:1.5917;stroke-miterlimit:10;}
	.st20{fill:none;stroke:#000000;stroke-width:13;stroke-miterlimit:10;}
	.st21{fill:none;stroke:#000000;stroke-width:13;stroke-linecap:round;stroke-linejoin:round;stroke-miterlimit:10;}
	.st22{fill:none;stroke:#231F20;stroke-width:4;stroke-miterlimit:10;}
	.st23{fill:none;stroke:#000000;stroke-width:5;stroke-linecap:round;stroke-miterlimit:10;}
	.st24{fill:none;stroke:#000000;stroke-width:14.1835;stroke-linecap:round;stroke-miterlimit:10;}
	.st25{fill:none;stroke:#231F20;stroke-width:4.3641;stroke-miterlimit:10;}
	.st26{fill:none;stroke:#000000;stroke-width:5.4552;stroke-linecap:round;stroke-miterlimit:10;}
	.st27{fill:#FFFFFF;stroke:#000000;stroke-width:13;stroke-linecap:round;stroke-linejoin:round;stroke-miterlimit:10;}
	.st28{fill:none;stroke:#BE4627;stroke-width:17.5211;stroke-linejoin:round;stroke-miterlimit:10;}
	.st29{fill:none;stroke:#9BB6DF;stroke-width:15;stroke-miterlimit:10;}
	.st30{fill:#9BB6DF;}
	.st31{fill:none;stroke:#000000;stroke-width:15.2025;stroke-miterlimit:10;}
	.st32{fill:none;stroke:#000000;stroke-width:14.4884;stroke-miterlimit:10;}
	.st33{fill:none;stroke:#000000;stroke-width:17.5311;stroke-miterlimit:10;}
	.st34{fill:#9BB6DF;stroke:#9BB6DF;stroke-width:12.1979;stroke-linecap:round;stroke-linejoin:round;stroke-miterlimit:10;}
	.st35{fill:#FFCF45;stroke:#000000;stroke-width:5.0299;stroke-miterlimit:10;}
	.st36{fill:none;stroke:#FFE4A0;stroke-width:3.8633;stroke-miterlimit:10;}
	.st37{fill:#FFFFFF;stroke:#000000;stroke-width:3.7724;stroke-linejoin:round;stroke-miterlimit:10;}
	.st38{fill:#FFCF45;stroke:#000000;stroke-width:16.45;stroke-miterlimit:10;}
	.st39{fill:none;stroke:#FFE4A0;stroke-width:10.9842;stroke-miterlimit:10;}
	.st40{fill:#FFFFFF;stroke:#000000;stroke-width:13.7083;stroke-linejoin:round;stroke-miterlimit:10;}
	.st41{fill:#BE4627;stroke:#BE4627;stroke-width:4.3973;stroke-miterlimit:10;}
	.st42{fill:none;stroke:#BE4627;stroke-width:1.0993;stroke-miterlimit:10;}
	.st43{fill:none;stroke:#FFFFFF;stroke-width:1.0993;stroke-miterlimit:10;}
	.st44{fill:none;stroke:#000000;stroke-width:14.2912;stroke-linecap:round;stroke-linejoin:round;stroke-miterlimit:10;}
	.st45{fill:none;stroke:#000000;stroke-width:18.5705;stroke-linejoin:round;stroke-miterlimit:10;}
	.st46{fill:#9BB6DF;stroke:#9BB6DF;stroke-width:9.188;stroke-linecap:round;stroke-linejoin:round;stroke-miterlimit:10;}
	.st47{fill:#FFCF45;stroke:#000000;stroke-width:13.8234;stroke-miterlimit:10;}
	.st48{fill:none;stroke:#000000;stroke-width:13.8234;stroke-linejoin:round;stroke-miterlimit:10;}
</style>
<g>
	<ellipse class="st6" cx="216.2" cy="136.7" rx="3.8" ry="3.9"/>
	<path class="st7" d="M176,151.8c2.2-1.3,7.2-3.7,14.3-4.5c1.6-0.2,9.4-0.9,17.5,2c5.4,1.9,4.3,3,15.6,9.6c6.2,3.6,9.4,4.9,11.8,5.8
		c3.9,1.4,7,2.5,11.5,2.9c1.1,0.1,10.6,0.8,18.1-3.3c2.3-1.2,2-1.6,8-6c2.8-2,5.1-3.6,6.7-4.7l0.4-3.3l-0.8,224l0.8-3.9l-2.1,4.8
		c-7.4,15.1-27.5,25.2-49.7,25.2c-24,0.1-45.4-11.7-51.4-28.5v-1.5v3.9v-227"/>
	<path class="st8" d="M175.8,71.8v298.5v1.5c5.9,16.8,27.4,28.6,51.4,28.5c22.1,0,42.2-10.2,49.7-25.2l2.1-4.8V71.8"/>
	<path class="st9" d="M303,71.8H152.1c-4.5,0-8.1-3.7-8.1-8.1v0c0-4.5,3.7-8.1,8.1-8.1H303c4.5,0,8.1,3.7,8.1,8.1v0
		C311.1,68.2,307.5,71.8,303,71.8z"/>
	<circle class="st6" cx="205.3" cy="102.1" r="13.7"/>
	<ellipse class="st6" cx="242.5" cy="128.5" rx="7.9" ry="8.1"/>
	<circle class="st6" cx="253.4" cy="106.2" r="4"/>
</g>
</svg>
