<?xml version="1.0" encoding="utf-8"?>
<!-- Generator: Adobe Illustrator 21.0.0, SVG Export Plug-In . SVG Version: 6.00 Build 0)  -->
<svg version="1.1" id="Layer_1" xmlns="http://www.w3.org/2000/svg" xmlns:xlink="http://www.w3.org/1999/xlink" x="0px" y="0px"
	 viewBox="0 0 510.2 510.2" style="enable-background:new 0 0 510.2 510.2;" xml:space="preserve">
<style type="text/css">
	.st0{fill:#BE4627;}
	.st1{fill:none;stroke:#9BB6DF;stroke-width:9.6025;stroke-linecap:round;stroke-miterlimit:10;}
	.st2{fill:none;stroke:#9BB6DF;stroke-width:10.9354;stroke-linecap:round;stroke-miterlimit:10;}
	.st3{fill:none;stroke:#9BB6DF;stroke-width:9.8939;stroke-linecap:round;stroke-miterlimit:10;}
	.st4{fill:none;stroke:#9BB6DF;stroke-width:9.3732;stroke-linecap:round;stroke-miterlimit:10;}
	.st5{fill:none;stroke:#9BB6DF;stroke-width:10.4146;stroke-linecap:round;stroke-miterlimit:10;}
	.st6{fill:none;stroke:#231F20;stroke-width:13;stroke-linecap:round;stroke-miterlimit:10;}
	.st7{fill:#FFE4A0;}
	.st8{fill:#FFCD34;}
	.st9{fill:none;stroke:#231F20;stroke-width:12.5425;stroke-miterlimit:10;}
	.st10{fill:#231F20;stroke:#231F20;stroke-width:0.7385;stroke-miterlimit:10;}
	.st11{fill:#9BB6DF;stroke:#000000;stroke-width:13.9907;stroke-miterlimit:10;}
	.st12{fill:none;stroke:#000000;stroke-width:13.9907;stroke-miterlimit:10;}
	.st13{fill:#0A0605;stroke:#0A0605;stroke-width:1.8065;stroke-linecap:round;stroke-linejoin:round;stroke-miterlimit:10;}
	.st14{fill:#FFFFFF;stroke:#000000;stroke-width:14.1913;stroke-linecap:round;stroke-linejoin:round;stroke-miterlimit:10;}
	.st15{fill:none;stroke:#0A0605;stroke-width:14.1913;stroke-linecap:round;stroke-linejoin:round;stroke-miterlimit:10;}
	.st16{fill:#9BB6DF;stroke:#9BB6DF;stroke-width:2;stroke-linecap:round;stroke-linejoin:round;stroke-miterlimit:10;}
	.st17{fill:#9BB6DF;stroke:#9BB6DF;stroke-width:4;stroke-linecap:round;stroke-linejoin:round;stroke-miterlimit:10;}
	.st18{fill:none;stroke:#000000;stroke-width:13.9595;stroke-miterlimit:10;}
	.st19{fill:#9BB6DF;stroke:#FFFFFF;stroke-width:1.5917;stroke-miterlimit:10;}
	.st20{fill:none;stroke:#000000;stroke-width:13;stroke-miterlimit:10;}
	.st21{fill:#FFFFFF;stroke:#050506;stroke-width:11.1082;stroke-linecap:round;stroke-linejoin:round;stroke-miterlimit:10;}
	.st22{fill:none;stroke:#231F20;stroke-width:4;stroke-miterlimit:10;}
	.st23{fill:none;stroke:#000000;stroke-width:5;stroke-linecap:round;stroke-miterlimit:10;}
	.st24{fill:none;stroke:#000000;stroke-width:14.1835;stroke-linecap:round;stroke-miterlimit:10;}
	.st25{fill:none;stroke:#231F20;stroke-width:4.3641;stroke-miterlimit:10;}
	.st26{fill:none;stroke:#000000;stroke-width:5.4552;stroke-linecap:round;stroke-miterlimit:10;}
	.st27{fill:#FFFFFF;stroke:#000000;stroke-width:13;stroke-linecap:round;stroke-linejoin:round;stroke-miterlimit:10;}
	.st28{fill:#FFFFFF;stroke:#000000;stroke-width:13;stroke-miterlimit:10;}
	.st29{fill:none;stroke:#BE4627;stroke-width:17.5211;stroke-linejoin:round;stroke-miterlimit:10;}
	.st30{fill:none;stroke:#9BB6DF;stroke-width:15;stroke-miterlimit:10;}
	.st31{fill:#FFFFFF;stroke:#000000;stroke-width:14.2912;stroke-linecap:round;stroke-linejoin:round;stroke-miterlimit:10;}
	.st32{fill:none;stroke:#BE4627;stroke-width:4.3973;stroke-miterlimit:10;}
	.st33{fill:none;stroke:#BE4627;stroke-width:1.0993;stroke-miterlimit:10;}
	.st34{fill:none;stroke:#FFFFFF;stroke-width:1.0993;stroke-miterlimit:10;}
	.st35{fill:none;stroke:#000000;stroke-width:14.2912;stroke-linecap:round;stroke-linejoin:round;stroke-miterlimit:10;}
	.st36{fill:#9BB6DF;}
	.st37{fill:#FFFFFF;stroke:#000000;stroke-width:15.2025;stroke-miterlimit:10;}
</style>
<g>
	<path class="st31" d="M258.3,143.7c-2.6-0.5-8.8-4.5-11.5-6.4c-7.8-5.3-10-7.3-20.2-9.1c0,0-5.9-0.8-11.9,2.2
		c-18.4,9.3-137.4,235.9-143.3,247.7h374c-6-11.8-124.9-238.4-143.3-247.7c-6-3-11.9-2.2-11.9-2.2c-10.3,1.8-12.4,3.7-20.2,9.1
		C267.1,139.2,260.9,143.2,258.3,143.7"/>
	<g>
		<path class="st0" d="M345.9,199.9c-20.9-57.8-40.3-61.3-42.2-68.2c-1.5-5.4-8.3-3.7-13.7-3.5c-16.1,0.6-20.2,17.2-31.8,15.5
			c-8.9-1.3-10.1-11.6-24.2-14.8c-0.6-0.1-4.9-2.1-9.5-0.7c-28.7,8.6-48.9,61.7-49.9,61.1c0,0,0,0,0,0c0.1-0.1,2.9,5.9,5.5,11
			c2.5,4.8,7.5,11.6,13.8,18.5c4.7,5,7.4,8.1,9.2,8.7c5.4,1.8,10.8-7.1,13.8-14.1c3.5-8.1,7.3-13.9,10.6-13.9c3.1-0.1,5.1,2.5,6,3.9
			c1.8,2.9,1.8,2.8,3.1,4.6c0.3,0.4,3.9,5,8.2,5.2c3.2,0.1,4.7-1.2,11-8.9c3.5-4.3,5.5-4.5,6.5-4.4c8.7,0.2,11.1,17.2,14.7,28.4
			c2.8,8.9,9.9,15,15.5,15.1c7.3,0.2,11.8-5.7,14.3-11.1c4.1-8.6,6-15,8.7-21.4c1.8-4.4,1.5-6.2,5.2-10.1c4.3-4.5,9.4-3.9,14.8-1.4
			c1.7,0.8,4.9,2.6,8.5,1.4C344.8,200.6,345.5,200.2,345.9,199.9"/>
		<path class="st32" d="M345.9,199.9c-20.9-57.8-40.3-61.3-42.2-68.2c-1.5-5.4-8.3-3.7-13.7-3.5c-16.1,0.6-20.2,17.2-31.8,15.5
			c-8.9-1.3-10.1-11.6-24.2-14.8c-0.6-0.1-4.9-2.1-9.5-0.7c-28.7,8.6-48.9,61.7-49.9,61.1c0,0,0,0,0,0c0.1-0.1,2.9,5.9,5.5,11
			c2.5,4.8,7.5,11.6,13.8,18.5c4.7,5,7.4,8.1,9.2,8.7c5.4,1.8,10.8-7.1,13.8-14.1c3.5-8.1,7.3-13.9,10.6-13.9c3.1-0.1,5.1,2.5,6,3.9
			c1.8,2.9,1.8,2.8,3.1,4.6c0.3,0.4,3.9,5,8.2,5.2c3.2,0.1,4.7-1.2,11-8.9c3.5-4.3,5.5-4.5,6.5-4.4c8.7,0.2,11.1,17.2,14.7,28.4
			c2.8,8.9,9.9,15,15.5,15.1c7.3,0.2,11.8-5.7,14.3-11.1c4.1-8.6,6-15,8.7-21.4c1.8-4.4,1.5-6.2,5.2-10.1c4.3-4.5,9.4-3.9,14.8-1.4
			c1.7,0.8,4.9,2.6,8.5,1.4C344.8,200.6,345.5,200.2,345.9,199.9"/>
		<path class="st0" d="M345.9,199.9c-20.9-57.8-40.3-61.3-42.2-68.2c-1.5-5.4-8.3-3.7-13.7-3.5c-16.1,0.6-20.2,17.2-31.8,15.5
			c-8.9-1.3-10.1-11.6-24.2-14.8c-0.6-0.1-4.9-2.1-9.5-0.7c-28.7,8.6-48.9,61.7-49.9,61.1c0,0,0,0,0,0c0.1-0.1,2.9,5.9,5.5,11
			c2.5,4.8,7.5,11.6,13.8,18.5c4.7,5,7.4,8.1,9.2,8.7c5.4,1.8,10.8-7.1,13.8-14.1c3.5-8.1,7.3-13.9,10.6-13.9c3.1-0.1,5.1,2.5,6,3.9
			c1.8,2.9,1.8,2.8,3.1,4.6c0.3,0.4,3.9,5,8.2,5.2c3.2,0.1,4.7-1.2,11-8.9c3.5-4.3,5.5-4.5,6.5-4.4c8.7,0.2,11.1,17.2,14.7,28.4
			c2.8,8.9,9.9,15,15.5,15.1c7.3,0.2,11.8-5.7,14.3-11.1c4.1-8.6,6-15,8.7-21.4c1.8-4.4,1.5-6.2,5.2-10.1c4.3-4.5,9.4-3.9,14.8-1.4
			c1.7,0.8,4.9,2.6,8.5,1.4C344.8,200.6,345.5,200.2,345.9,199.9"/>
	</g>
	<path class="st35" d="M258.3,143.7c-2.6-0.5-8.8-4.5-11.5-6.4c-7.8-5.3-10-7.3-20.2-9.1c0,0-5.9-0.8-11.9,2.2
		c-18.4,9.3-137.4,235.9-143.3,247.7h374c-6-11.8-124.9-238.4-143.3-247.7c-6-3-11.9-2.2-11.9-2.2c-10.3,1.8-12.4,3.7-20.2,9.1
		C267.1,139.2,260.9,143.2,258.3,143.7"/>
</g>
</svg>
