<?xml version="1.0" encoding="utf-8"?>
<!-- Generator: Adobe Illustrator 21.0.0, SVG Export Plug-In . SVG Version: 6.00 Build 0)  -->
<svg version="1.1" id="Layer_1" xmlns="http://www.w3.org/2000/svg" xmlns:xlink="http://www.w3.org/1999/xlink" x="0px" y="0px"
	 viewBox="0 0 510.2 510.2" style="enable-background:new 0 0 510.2 510.2;" xml:space="preserve">
<style type="text/css">
	.st0{fill:#BE4627;}
	.st1{fill:none;stroke:#9BB6DF;stroke-width:9.6025;stroke-linecap:round;stroke-miterlimit:10;}
	.st2{fill:none;stroke:#9BB6DF;stroke-width:10.9354;stroke-linecap:round;stroke-miterlimit:10;}
	.st3{fill:none;stroke:#9BB6DF;stroke-width:9.8939;stroke-linecap:round;stroke-miterlimit:10;}
	.st4{fill:none;stroke:#9BB6DF;stroke-width:9.3732;stroke-linecap:round;stroke-miterlimit:10;}
	.st5{fill:none;stroke:#9BB6DF;stroke-width:10.4146;stroke-linecap:round;stroke-miterlimit:10;}
	.st6{fill:none;stroke:#231F20;stroke-width:13;stroke-linecap:round;stroke-miterlimit:10;}
	.st7{fill:#FFE4A0;}
	.st8{fill:#FFCD34;}
	.st9{fill:none;stroke:#231F20;stroke-width:12.5425;stroke-miterlimit:10;}
	.st10{fill:#231F20;stroke:#231F20;stroke-width:0.7385;stroke-miterlimit:10;}
	.st11{fill:#9BB6DF;stroke:#000000;stroke-width:13.9907;stroke-miterlimit:10;}
	.st12{fill:none;stroke:#000000;stroke-width:13.9907;stroke-miterlimit:10;}
	.st13{fill:#0A0605;stroke:#0A0605;stroke-width:1.8065;stroke-linecap:round;stroke-linejoin:round;stroke-miterlimit:10;}
	.st14{fill:#FFFFFF;stroke:#000000;stroke-width:14.1913;stroke-linecap:round;stroke-linejoin:round;stroke-miterlimit:10;}
	.st15{fill:none;stroke:#0A0605;stroke-width:14.1913;stroke-linecap:round;stroke-linejoin:round;stroke-miterlimit:10;}
	.st16{fill:#9BB6DF;stroke:#9BB6DF;stroke-width:2;stroke-linecap:round;stroke-linejoin:round;stroke-miterlimit:10;}
	.st17{fill:#9BB6DF;stroke:#9BB6DF;stroke-width:4;stroke-linecap:round;stroke-linejoin:round;stroke-miterlimit:10;}
	.st18{fill:none;stroke:#000000;stroke-width:13.9595;stroke-miterlimit:10;}
	.st19{fill:#9BB6DF;stroke:#FFFFFF;stroke-width:1.5917;stroke-miterlimit:10;}
	.st20{fill:none;stroke:#000000;stroke-width:13;stroke-miterlimit:10;}
	.st21{fill:#FFFFFF;stroke:#050506;stroke-width:11.1082;stroke-linecap:round;stroke-linejoin:round;stroke-miterlimit:10;}
	.st22{fill:none;stroke:#231F20;stroke-width:4;stroke-miterlimit:10;}
	.st23{fill:none;stroke:#000000;stroke-width:5;stroke-linecap:round;stroke-miterlimit:10;}
	.st24{fill:none;stroke:#000000;stroke-width:14.1835;stroke-linecap:round;stroke-miterlimit:10;}
	.st25{fill:none;stroke:#231F20;stroke-width:4.3641;stroke-miterlimit:10;}
	.st26{fill:none;stroke:#000000;stroke-width:5.4552;stroke-linecap:round;stroke-miterlimit:10;}
	.st27{fill:#FFFFFF;stroke:#000000;stroke-width:13;stroke-linecap:round;stroke-linejoin:round;stroke-miterlimit:10;}
	.st28{fill:#FFFFFF;stroke:#000000;stroke-width:13;stroke-miterlimit:10;}
	.st29{fill:none;stroke:#BE4627;stroke-width:17.5211;stroke-linejoin:round;stroke-miterlimit:10;}
	.st30{fill:none;stroke:#9BB6DF;stroke-width:15;stroke-miterlimit:10;}
	.st31{fill:#FFFFFF;stroke:#000000;stroke-width:14.2912;stroke-linecap:round;stroke-linejoin:round;stroke-miterlimit:10;}
	.st32{fill:none;stroke:#BE4627;stroke-width:4.3973;stroke-miterlimit:10;}
	.st33{fill:none;stroke:#BE4627;stroke-width:1.0993;stroke-miterlimit:10;}
	.st34{fill:none;stroke:#FFFFFF;stroke-width:1.0993;stroke-miterlimit:10;}
	.st35{fill:none;stroke:#000000;stroke-width:14.2912;stroke-linecap:round;stroke-linejoin:round;stroke-miterlimit:10;}
	.st36{fill:#9BB6DF;}
	.st37{fill:#FFFFFF;stroke:#000000;stroke-width:15.2025;stroke-miterlimit:10;}
</style>
<g>
	<g>
		<path d="M244.9,364.6c0.2,0.5,1.4,0.4,1.8,0.3c0.7-0.1,1.5-0.2,1.9-0.7c0.1-0.1,0-0.8,0-0.7c0-0.6,0-1.2,0-1.8c0-0.6,0-1.2,0-1.8
			c0-0.1-0.1-0.7,0-0.7c-0.5,0.5-1.3,0.6-1.9,0.7c-0.4,0-1.7,0.2-1.8-0.3c0,0.2,0,0.6,0,0.7c0,0.6,0,1.2,0,1.8c0,0.6,0,1.2,0,1.8
			C244.9,364.1,244.9,364.4,244.9,364.6L244.9,364.6z"/>
	</g>
</g>
<g>
	<polyline class="st0" points="266.6,355.8 266.6,413.2 290.9,392.8 315.3,413.2 315.3,353.3 	"/>
	<g>
		<path class="st24" d="M259.2,351.5c-1.3-65.1,0-131.2-1.3-196.3c0-1.1-2.6-3.4-5.1-4.6c-26.8-9.1-54.9-11.4-82.9-13.7
			c-26.8-1.1-81.6,3.4-81.7,4.6c-1.1,71.3-1.3,140.7-2.2,211.9"/>
		<path class="st24" d="M86.6,353.9c58.8-6.7,116-9.6,172.6-1.6"/>
	</g>
	<g>
		<path class="st24" d="M258.9,351.2c1.3-65.1,0-131.2,1.3-196.3c0-1.1,2.6-3.4,5.1-4.6c26.8-9.1,54.9-11.4,82.9-13.7
			c26.8-1.1,81.6,3.4,81.7,4.6c1.1,71.3,1.3,140.7,2.2,211.9"/>
		<path class="st24" d="M431.5,353.6c-58.8-6.7-116-9.6-172.6-1.6"/>
	</g>
	<path class="st26" d="M296.5,184.7c30.7-3.2,62.2-4.4,94.4-3.3c1.2,0,2.3,0.1,3.5,0.1"/>
	<path class="st26" d="M297,224.7c30.7-3.2,62.2-4.4,94.4-3.3c1.2,0,2.3,0.1,3.5,0.1"/>
	<path class="st26" d="M298.2,265.9c30.7-3.2,62.2-4.4,94.4-3.3c1.2,0,2.3,0.1,3.5,0.1"/>
	<path class="st26" d="M297.8,306c30.7-3.2,62.2-4.4,94.4-3.3c1.2,0,2.3,0.1,3.5,0.1"/>
	<path class="st26" d="M221.7,184.7c-30.7-3.2-62.2-4.4-94.4-3.3c-1.2,0-2.3,0.1-3.5,0.1"/>
	<path class="st26" d="M221.5,224.7c-30.7-3.2-62.2-4.4-94.4-3.3c-1.2,0-2.3,0.1-3.5,0.1"/>
	<path class="st26" d="M222.6,265.9c-30.7-3.2-62.2-4.4-94.4-3.3c-1.2,0-2.3,0.1-3.5,0.1"/>
	<path class="st26" d="M222.7,307.1c-30.7-3.2-62.2-4.4-94.4-3.3c-1.2,0-2.3,0.1-3.5,0.1"/>
</g>
</svg>
