<?xml version="1.0" encoding="utf-8"?>
<!-- Generator: Adobe Illustrator 21.0.0, SVG Export Plug-In . SVG Version: 6.00 Build 0)  -->
<svg version="1.1" id="Layer_1" xmlns="http://www.w3.org/2000/svg" xmlns:xlink="http://www.w3.org/1999/xlink" x="0px" y="0px"
	 viewBox="0 0 612.8 136.5" style="enable-background:new 0 0 612.8 136.5;" xml:space="preserve">
<style type="text/css">
	.st0{fill:none;stroke:#9BB6DF;stroke-width:9.6025;stroke-linecap:round;stroke-miterlimit:10;}
	.st1{fill:none;stroke:#9BB6DF;stroke-width:10.9354;stroke-linecap:round;stroke-miterlimit:10;}
	.st2{fill:none;stroke:#9BB6DF;stroke-width:9.8939;stroke-linecap:round;stroke-miterlimit:10;}
	.st3{fill:none;stroke:#9BB6DF;stroke-width:9.3732;stroke-linecap:round;stroke-miterlimit:10;}
	.st4{fill:none;stroke:#9BB6DF;stroke-width:10.4146;stroke-linecap:round;stroke-miterlimit:10;}
	.st5{fill:none;stroke:#231F20;stroke-width:13;stroke-linecap:round;stroke-miterlimit:10;}
	.st6{fill:#FFE4A0;}
	.st7{fill:#FFCD34;}
	.st8{fill:none;stroke:#231F20;stroke-width:12.5425;stroke-miterlimit:10;}
	.st9{fill:#231F20;stroke:#231F20;stroke-width:0.7385;stroke-miterlimit:10;}
	.st10{fill:#9BB6DF;stroke:#000000;stroke-width:13.9907;stroke-miterlimit:10;}
	.st11{fill:none;stroke:#000000;stroke-width:13.9907;stroke-miterlimit:10;}
	.st12{fill:#BE4627;}
	.st13{fill:#0A0605;stroke:#0A0605;stroke-width:1.8065;stroke-linecap:round;stroke-linejoin:round;stroke-miterlimit:10;}
	.st14{fill:none;stroke:#000000;stroke-width:14.1913;stroke-linecap:round;stroke-linejoin:round;stroke-miterlimit:10;}
	.st15{fill:none;stroke:#0A0605;stroke-width:14.1913;stroke-linecap:round;stroke-linejoin:round;stroke-miterlimit:10;}
	.st16{fill:#9BB6DF;stroke:#9BB6DF;stroke-width:2;stroke-linecap:round;stroke-linejoin:round;stroke-miterlimit:10;}
	.st17{fill:#9BB6DF;stroke:#9BB6DF;stroke-width:4;stroke-linecap:round;stroke-linejoin:round;stroke-miterlimit:10;}
	.st18{fill:none;stroke:#000000;stroke-width:13.9595;stroke-miterlimit:10;}
	.st19{fill:#9BB6DF;stroke:#FFFFFF;stroke-width:1.5917;stroke-miterlimit:10;}
	.st20{fill:none;stroke:#000000;stroke-width:13;stroke-miterlimit:10;}
	.st21{fill:none;stroke:#000000;stroke-width:13;stroke-linecap:round;stroke-linejoin:round;stroke-miterlimit:10;}
	.st22{fill:none;stroke:#231F20;stroke-width:4;stroke-miterlimit:10;}
	.st23{fill:none;stroke:#000000;stroke-width:5;stroke-linecap:round;stroke-miterlimit:10;}
	.st24{fill:none;stroke:#000000;stroke-width:14.1835;stroke-linecap:round;stroke-miterlimit:10;}
	.st25{fill:none;stroke:#231F20;stroke-width:4.3641;stroke-miterlimit:10;}
	.st26{fill:none;stroke:#000000;stroke-width:5.4552;stroke-linecap:round;stroke-miterlimit:10;}
	.st27{fill:#FFFFFF;stroke:#000000;stroke-width:13;stroke-linecap:round;stroke-linejoin:round;stroke-miterlimit:10;}
	.st28{fill:none;stroke:#BE4627;stroke-width:17.5211;stroke-linejoin:round;stroke-miterlimit:10;}
	.st29{fill:none;stroke:#9BB6DF;stroke-width:15;stroke-miterlimit:10;}
	.st30{fill:#9BB6DF;}
	.st31{fill:none;stroke:#000000;stroke-width:15.2025;stroke-miterlimit:10;}
	.st32{fill:none;stroke:#000000;stroke-width:14.4884;stroke-miterlimit:10;}
	.st33{fill:none;stroke:#000000;stroke-width:17.5311;stroke-miterlimit:10;}
	.st34{fill:#9BB6DF;stroke:#9BB6DF;stroke-width:12;stroke-linecap:round;stroke-linejoin:round;stroke-miterlimit:10;}
	.st35{fill:#FFCF45;stroke:#FFCF45;stroke-width:12;stroke-miterlimit:10;}
	.st36{fill:none;}
	.st37{font-family:'Prompt-ExtraBold';}
	.st38{font-size:170.0778px;}
	.st39{fill:#FFCF45;stroke:#000000;stroke-width:5.0299;stroke-miterlimit:10;}
	.st40{fill:none;stroke:#FFE4A0;stroke-width:3.8633;stroke-miterlimit:10;}
	.st41{fill:#FFFFFF;stroke:#000000;stroke-width:3.7724;stroke-linejoin:round;stroke-miterlimit:10;}
	.st42{fill:#FFCF45;stroke:#000000;stroke-width:16.45;stroke-miterlimit:10;}
	.st43{fill:none;stroke:#FFE4A0;stroke-width:10.9842;stroke-miterlimit:10;}
	.st44{fill:#FFFFFF;stroke:#000000;stroke-width:13.7083;stroke-linejoin:round;stroke-miterlimit:10;}
	.st45{fill:#BE4627;stroke:#BE4627;stroke-width:4.3973;stroke-miterlimit:10;}
	.st46{fill:none;stroke:#BE4627;stroke-width:1.0993;stroke-miterlimit:10;}
	.st47{fill:none;stroke:#FFFFFF;stroke-width:1.0993;stroke-miterlimit:10;}
	.st48{fill:none;stroke:#000000;stroke-width:14.2912;stroke-linecap:round;stroke-linejoin:round;stroke-miterlimit:10;}
	.st49{fill:none;stroke:#000000;stroke-width:18.5705;stroke-linejoin:round;stroke-miterlimit:10;}
	.st50{fill:#9BB6DF;stroke:#9BB6DF;stroke-width:9.188;stroke-linecap:round;stroke-linejoin:round;stroke-miterlimit:10;}
	.st51{fill:#FFCF45;stroke:#000000;stroke-width:13.8234;stroke-miterlimit:10;}
	.st52{fill:none;stroke:#000000;stroke-width:13.8234;stroke-linejoin:round;stroke-miterlimit:10;}
</style>
<g>
	<rect x="1.6" y="1.3" class="st36" width="747.8" height="296"/>
	<text transform="matrix(1 0 0 1 1.6227 127.0084)" class="st37 st38">learn it</text>
	<path class="st39" d="M437.3,111.8c-0.9-4.4,2-14.5-5-19.6c-15.2-11-24.6-33-19-52.7c4.6-16.3,17-35.5,46.4-36.1h-0.1
		c29.4,0.7,41.8,19.8,46.4,36.1c5.5,19.7-3.8,41.7-19,52.7c-7,5.1-4.1,15.2-5,19.6H437.3z"/>
	<path class="st40" d="M450.7,108.2l0.3-33.8c0.6-10.1-0.5-18.5-7-20c-4.1-0.9-7.3,2.4-6.5,7.2c1.1,6.5,9.5,12.1,22.5,12h-0.8
		c13,0.1,21.4-5.5,22.5-12c0.8-4.7-2.4-8.1-6.5-7.2c-6.6,1.5-7.6,9.9-7,20l0.3,33.8"/>
	<path class="st41" d="M480.1,111.8H439c-3,0-5.4,2.4-5.4,5.4c0,3,2.4,5.4,5.4,5.4h1.4c-0.3,0.5-0.4,1-0.4,1.6
		c0,1.7,1.4,3.2,3.2,3.2h3.6v0.6c0,3.6,3,6.6,6.6,6.6h11.2c3.6,0,6.6-3,6.6-6.6v-0.6h4.7c1.7,0,3.2-1.4,3.2-3.2
		c0-0.6-0.2-1.1-0.4-1.6h1.4c3,0,5.4-2.4,5.4-5.4C485.5,114.2,483.1,111.8,480.1,111.8z"/>
</g>
</svg>
