<?xml version="1.0" encoding="utf-8"?>
<!-- Generator: Adobe Illustrator 21.0.0, SVG Export Plug-In . SVG Version: 6.00 Build 0)  -->
<svg version="1.1" id="Layer_1" xmlns="http://www.w3.org/2000/svg" xmlns:xlink="http://www.w3.org/1999/xlink" x="0px" y="0px"
	 viewBox="0 0 510.2 510.2" style="enable-background:new 0 0 510.2 510.2;" xml:space="preserve">
<style type="text/css">
	.st0{fill:#BE4627;}
	.st1{fill:none;stroke:#9BB6DF;stroke-width:9.6025;stroke-linecap:round;stroke-miterlimit:10;}
	.st2{fill:none;stroke:#9BB6DF;stroke-width:10.9354;stroke-linecap:round;stroke-miterlimit:10;}
	.st3{fill:none;stroke:#9BB6DF;stroke-width:9.8939;stroke-linecap:round;stroke-miterlimit:10;}
	.st4{fill:none;stroke:#9BB6DF;stroke-width:9.3732;stroke-linecap:round;stroke-miterlimit:10;}
	.st5{fill:none;stroke:#9BB6DF;stroke-width:10.4146;stroke-linecap:round;stroke-miterlimit:10;}
	.st6{fill:none;stroke:#231F20;stroke-width:13;stroke-linecap:round;stroke-miterlimit:10;}
	.st7{fill:#FFE4A0;}
	.st8{fill:#FFCD34;}
	.st9{fill:none;stroke:#231F20;stroke-width:12.5425;stroke-miterlimit:10;}
	.st10{fill:#231F20;stroke:#231F20;stroke-width:0.7385;stroke-miterlimit:10;}
	.st11{fill:#9BB6DF;stroke:#000000;stroke-width:13.9907;stroke-miterlimit:10;}
	.st12{fill:none;stroke:#000000;stroke-width:13.9907;stroke-miterlimit:10;}
	.st13{fill:#0A0605;stroke:#0A0605;stroke-width:1.8065;stroke-linecap:round;stroke-linejoin:round;stroke-miterlimit:10;}
	.st14{fill:#FFFFFF;stroke:#000000;stroke-width:14.1913;stroke-linecap:round;stroke-linejoin:round;stroke-miterlimit:10;}
	.st15{fill:none;stroke:#0A0605;stroke-width:14.1913;stroke-linecap:round;stroke-linejoin:round;stroke-miterlimit:10;}
	.st16{fill:#9BB6DF;stroke:#9BB6DF;stroke-width:2;stroke-linecap:round;stroke-linejoin:round;stroke-miterlimit:10;}
	.st17{fill:#9BB6DF;stroke:#9BB6DF;stroke-width:4;stroke-linecap:round;stroke-linejoin:round;stroke-miterlimit:10;}
	.st18{fill:none;stroke:#000000;stroke-width:13.9595;stroke-miterlimit:10;}
	.st19{fill:#9BB6DF;stroke:#FFFFFF;stroke-width:1.5917;stroke-miterlimit:10;}
	.st20{fill:none;stroke:#000000;stroke-width:13;stroke-miterlimit:10;}
	.st21{fill:#FFFFFF;stroke:#050506;stroke-width:11.1082;stroke-linecap:round;stroke-linejoin:round;stroke-miterlimit:10;}
	.st22{fill:none;stroke:#231F20;stroke-width:4;stroke-miterlimit:10;}
	.st23{fill:none;stroke:#000000;stroke-width:5;stroke-linecap:round;stroke-miterlimit:10;}
	.st24{fill:none;stroke:#000000;stroke-width:14.1835;stroke-linecap:round;stroke-miterlimit:10;}
	.st25{fill:none;stroke:#231F20;stroke-width:4.3641;stroke-miterlimit:10;}
	.st26{fill:none;stroke:#000000;stroke-width:5.4552;stroke-linecap:round;stroke-miterlimit:10;}
	.st27{fill:#FFFFFF;stroke:#000000;stroke-width:13;stroke-linecap:round;stroke-linejoin:round;stroke-miterlimit:10;}
	.st28{fill:#FFFFFF;stroke:#000000;stroke-width:13;stroke-miterlimit:10;}
	.st29{fill:none;stroke:#BE4627;stroke-width:17.5211;stroke-linejoin:round;stroke-miterlimit:10;}
	.st30{fill:none;stroke:#9BB6DF;stroke-width:15;stroke-miterlimit:10;}
	.st31{fill:#FFFFFF;stroke:#000000;stroke-width:14.2912;stroke-linecap:round;stroke-linejoin:round;stroke-miterlimit:10;}
	.st32{fill:none;stroke:#BE4627;stroke-width:4.3973;stroke-miterlimit:10;}
	.st33{fill:none;stroke:#BE4627;stroke-width:1.0993;stroke-miterlimit:10;}
	.st34{fill:none;stroke:#FFFFFF;stroke-width:1.0993;stroke-miterlimit:10;}
	.st35{fill:none;stroke:#000000;stroke-width:14.2912;stroke-linecap:round;stroke-linejoin:round;stroke-miterlimit:10;}
	.st36{fill:#9BB6DF;}
	.st37{fill:#FFFFFF;stroke:#000000;stroke-width:15.2025;stroke-miterlimit:10;}
</style>
<rect x="126.2" y="106.3" class="st0" width="57.5" height="94.7"/>
<rect x="324.5" y="106.3" class="st0" width="57.5" height="94.7"/>
<polygon class="st8" points="250.4,71 229.1,174 256.1,160.7 254.1,227 278.9,123 251.6,138.2 "/>
<path class="st20" d="M256.8,349.6c-45,1-70.1-33.2-74-50.7c-3.3-14.7-3.1-24.4,0-114c1.4-40.7,1.2-50.5,1.6-68.8
	c0.4-18.2-57.2-19.7-57.6-1.2c-0.7,31-0.4,37-0.7,76.7c-0.5,69.7-1.3,80-1.3,113.3c0,51.4,66.5,106.5,132,103.3h-5.5
	c65.5,3.1,132-51.9,132-103.3c0-33.4-0.8-43.6-1.3-113.3c-0.3-39.7,0.1-45.7-0.7-76.7c-0.4-18.5-58-17-57.6,1.2
	c0.4,18.2,0.2,28.1,1.6,68.8c3.1,89.6,3.3,99.3,0,114c-3.9,17.5-29,51.7-74,50.7"/>
</svg>
